<mxfile host="app.diagrams.net" modified="2024-07-29T09:17:50.270Z" agent="Mozilla/5.0 (Macintosh; Intel Mac OS X 10_15_7) AppleWebKit/605.1.15 (KHTML, like Gecko) Version/17.5 Safari/605.1.15" version="24.7.1" etag="uNclD8G9TPA5SrG-P73W" type="github">
  <diagram name="Page-1" id="dE4RGZmNiZV8994kXfb-">
    <mxGraphModel>
      <root>
        <mxCell id="0" />
        <mxCell id="1" parent="0" />
      </root>
    </mxGraphModel>
  </diagram>
</mxfile>
